<?xml version="1.0" encoding="UTF-8" standalone="no"?>
<!-- Created with Inkscape (http://www.inkscape.org/) -->

<svg
   xmlns:dc="http://purl.org/dc/elements/1.1/"
   xmlns:cc="http://creativecommons.org/ns#"
   xmlns:rdf="http://www.w3.org/1999/02/22-rdf-syntax-ns#"
   xmlns:svg="http://www.w3.org/2000/svg"
   xmlns="http://www.w3.org/2000/svg"
   xmlns:sodipodi="http://sodipodi.sourceforge.net/DTD/sodipodi-0.dtd"
   xmlns:inkscape="http://www.inkscape.org/namespaces/inkscape"
   id="svg2"
   version="1.1"
   inkscape:version="0.48.5 r10040"
   width="452.5"
   height="275"
   xml:space="preserve"
   sodipodi:docname="SpotPrice.eps"><metadata
     id="metadata8"><rdf:RDF><cc:Work
         rdf:about=""><dc:format>image/svg+xml</dc:format><dc:type
           rdf:resource="http://purl.org/dc/dcmitype/StillImage" /><dc:title></dc:title></cc:Work></rdf:RDF></metadata><defs
     id="defs6"><clipPath
       clipPathUnits="userSpaceOnUse"
       id="clipPath20"><path
         d="m 10,10 3600,0 0,2180 -3600,0 0,-2180 z"
         id="path22" /></clipPath><clipPath
       clipPathUnits="userSpaceOnUse"
       id="clipPath34"><path
         d="m 630,490 2740,0 0,1570 -2740,0 0,-1570 z"
         id="path36" /></clipPath><clipPath
       clipPathUnits="userSpaceOnUse"
       id="clipPath44"><path
         d="m 10,10 3600,0 0,2180 -3600,0 0,-2180 z"
         id="path46" /></clipPath></defs><sodipodi:namedview
     pagecolor="#ffffff"
     bordercolor="#666666"
     borderopacity="1"
     objecttolerance="10"
     gridtolerance="10"
     guidetolerance="10"
     inkscape:pageopacity="0"
     inkscape:pageshadow="2"
     inkscape:window-width="1280"
     inkscape:window-height="751"
     id="namedview4"
     showgrid="false"
     inkscape:zoom="1.9781818"
     inkscape:cx="226.25"
     inkscape:cy="137.5"
     inkscape:window-x="0"
     inkscape:window-y="0"
     inkscape:window-maximized="1"
     inkscape:current-layer="g48" /><g
     id="g10"
     inkscape:groupmode="layer"
     inkscape:label="ink_ext_XXXXXX"
     transform="matrix(1.25,0,0,-1.25,0,275)"><g
       id="g12"
       transform="scale(0.1,0.1)"><path
         d="m 10,5 3600,0 0,2185 L 10,2190 10,5 z"
         style="fill:#ffffff;fill-opacity:1;fill-rule:evenodd;stroke:none"
         id="path14" /><g
         id="g16"><g
           id="g18"
           clip-path="url(#clipPath20)"><path
             d="m 630,710 2740,0 m -2740,230 2740,0 m -2740,220 2740,0 m -2740,230 2740,0 m -2740,220 2740,0 m -2740,230 2740,0 m -2740,220 2740,0"
             style="fill:none;stroke:#989898;stroke-opacity:1;stroke-width:10;stroke-linecap:butt;stroke-linejoin:round;stroke-miterlimit:10;stroke-dasharray:none"
             id="path24" /><path
             d="m 632.77,488.48 0,1571.52"
             style="fill:none;stroke:#989898;stroke-opacity:1;stroke-width:10;stroke-linecap:butt;stroke-linejoin:round;stroke-miterlimit:10;stroke-dasharray:none"
             id="path26" /><path
             d="m 632.77,488.48 2739.42,0"
             style="fill:none;stroke:#989898;stroke-opacity:1;stroke-width:10;stroke-linecap:butt;stroke-linejoin:round;stroke-miterlimit:10;stroke-dasharray:none"
             id="path28" /></g></g><g
         id="g30"><g
           id="g32"
           clip-path="url(#clipPath34)"><path
             d="m 2899.77,1310 -379.77,0 m 0,0 0,10 m 0,0 -80,0 m 0,0 0,10 m 0,0 -80,0 m 0,0 0,10 m 0,0 -80,0 m 0,0 0,10 m 0,0 -80,0 m 0,0 0,450 m 0,0 -80,0 m 0,0 0,-350 m 0,0 -260,0 m 0,0 0,-40 m 0,0 -70,0 m 0,0 0,-20 m 0,0 -80,0 m 0,0 0,30 m 0,0 -80,0 m 0,0 0,-20 m 0,0 -150,0 m 0,0 0,-110 m 0,0 -500,0"
             style="fill:none;stroke:#5b92c7;stroke-opacity:1;stroke-width:37.5;stroke-linecap:round;stroke-linejoin:round;stroke-miterlimit:10;stroke-dasharray:none"
             id="path38" /></g></g><g
         id="g40"><g
           id="g42"
           clip-path="url(#clipPath44)"><g
             id="g48"
             transform="scale(10,10)"><text
               transform="matrix(1,0,0,-1,48.9316,44.8473)"
               id="text50"><tspan
                 style="fill:#000000;fill-opacity:1;fill-rule:nonzero;stroke:none;font-family:Times New Roman;font-variant:normal;font-weight:normal;font-size:9.6px;writing-mode:lr;-inkscape-font-specification:Times New Roman"
                 x="0"
                 y="0"
                 id="tspan52">0</tspan><tspan
                 style="fill:#000000;fill-opacity:1;fill-rule:nonzero;stroke:none;font-family:Times New Roman;font-variant:normal;font-weight:normal;font-size:9.6px;writing-mode:lr;-inkscape-font-specification:Times New Roman"
                 x="-17.9316 -12.8616 -10.33788906 -5.26788906 -0.19788906"
                 y="-22.4504"
                 sodipodi:role="line"
                 id="tspan54">0.002</tspan><tspan
                 style="fill:#000000;fill-opacity:1;fill-rule:nonzero;stroke:none;font-family:Times New Roman;font-variant:normal;font-weight:normal;font-size:9.6px;writing-mode:lr;-inkscape-font-specification:Times New Roman"
                 x="-17.9316 -12.8616 -10.33788906 -5.26788906 -0.19788906"
                 y="-44.9008"
                 sodipodi:role="line"
                 id="tspan56">0.004</tspan><tspan
                 style="fill:#000000;fill-opacity:1;fill-rule:nonzero;stroke:none;font-family:Times New Roman;font-variant:normal;font-weight:normal;font-size:9.6px;writing-mode:lr;-inkscape-font-specification:Times New Roman"
                 x="-17.9316 -12.8616 -10.33788906 -5.26788906 -0.19788906"
                 y="-67.3512"
                 sodipodi:role="line"
                 id="tspan58">0.006</tspan><tspan
                 style="fill:#000000;fill-opacity:1;fill-rule:nonzero;stroke:none;font-family:Times New Roman;font-variant:normal;font-weight:normal;font-size:9.6px;writing-mode:lr;-inkscape-font-specification:Times New Roman"
                 x="-17.729256 -12.659256 -10.13554506 -5.06554506 0.00445494"
                 y="-89.8016"
                 sodipodi:role="line"
                 id="tspan60">0.008</tspan><tspan
                 style="fill:#000000;fill-opacity:1;fill-rule:nonzero;stroke:none;font-family:Times New Roman;font-variant:normal;font-weight:normal;font-size:9.6px;writing-mode:lr;-inkscape-font-specification:Times New Roman"
                 x="-12.660896 -7.590896 -5.06718506 0.00281494"
                 y="-112.2524"
                 sodipodi:role="line"
                 id="tspan62">0.01</tspan><tspan
                 style="fill:#000000;fill-opacity:1;fill-rule:nonzero;stroke:none;font-family:Times New Roman;font-variant:normal;font-weight:normal;font-size:9.6px;writing-mode:lr;-inkscape-font-specification:Times New Roman"
                 x="-17.931596 -12.861596 -10.33788506 -5.26788506 -0.19788506"
                 y="-134.7028"
                 sodipodi:role="line"
                 id="tspan64">0.012</tspan><tspan
                 style="fill:#000000;fill-opacity:1;fill-rule:nonzero;stroke:none;font-family:Times New Roman;font-variant:normal;font-weight:normal;font-size:9.6px;writing-mode:lr;-inkscape-font-specification:Times New Roman"
                 x="-17.931596 -12.861596 -10.33788506 -5.26788506 -0.19788506"
                 y="-157.1532"
                 sodipodi:role="line"
                 id="tspan66">0.014</tspan><tspan
                 style="fill:#000000;fill-opacity:1;fill-rule:nonzero;stroke:none;font-family:Times New Roman;font-variant:normal;font-weight:normal;font-size:9.6px;writing-mode:lr;-inkscape-font-specification:Times New Roman"
                 x="5.403904 10.473904 13.15624775 18.22624775 51.07124775 56.14124775 58.82320088 63.89320088 96.67880088 101.74880088 104.43114463 109.50114463 139.84614463 144.91614463 149.98614463 152.66848838 157.73848838 185.51548838 190.58548838 195.65548838 198.33744151 203.40744151 231.18444151 236.25444151 241.32444151 244.00639464 249.07639464"
                 y="12.3468"
                 sodipodi:role="line"
                 id="tspan68">8:389:079:3610:0410:3311:02</tspan></text>
<text
               transform="matrix(0,1,1,0,0,0)"
               id="text70"
               x="105.65736"
               y="24.691177"><tspan
                 style="font-size:8px;font-style:normal;font-variant:normal;font-weight:bold;writing-mode:lr-tb;fill:#000000;fill-opacity:1;fill-rule:nonzero;stroke:none;font-family:SimHei;-inkscape-font-specification:SimHei Bold"
                 sodipodi:role="line"
                 id="tspan72"
                 x="105.65736"
                 y="24.691177">市场价格（美元）</tspan></text>
<text
               transform="scale(1,-1)"
               id="text74"
               x="194.02463"
               y="-16.595987"><tspan
                 style="font-size:8px;font-variant:normal;font-weight:bold;text-align:center;writing-mode:lr-tb;text-anchor:middle;fill:#000000;fill-opacity:1;fill-rule:nonzero;stroke:none;font-family:SimHei;-inkscape-font-specification:SimHei"
                 sodipodi:role="line"
                 id="tspan76"
                 x="194.02463"
                 y="-16.595987">时间（2014年6月24日）</tspan></text>
</g></g></g></g></g></svg>