<?xml version="1.0" encoding="UTF-8" standalone="no"?>
<!-- Created with Inkscape (http://www.inkscape.org/) -->

<svg
   xmlns:dc="http://purl.org/dc/elements/1.1/"
   xmlns:cc="http://creativecommons.org/ns#"
   xmlns:rdf="http://www.w3.org/1999/02/22-rdf-syntax-ns#"
   xmlns:svg="http://www.w3.org/2000/svg"
   xmlns="http://www.w3.org/2000/svg"
   xmlns:sodipodi="http://sodipodi.sourceforge.net/DTD/sodipodi-0.dtd"
   xmlns:inkscape="http://www.inkscape.org/namespaces/inkscape"
   id="svg2"
   version="1.1"
   inkscape:version="0.48.5 r10040"
   width="432.5"
   height="297.5"
   xml:space="preserve"
   sodipodi:docname="spotprices.eps"><metadata
     id="metadata8"><rdf:RDF><cc:Work
         rdf:about=""><dc:format>image/svg+xml</dc:format><dc:type
           rdf:resource="http://purl.org/dc/dcmitype/StillImage" /><dc:title></dc:title></cc:Work></rdf:RDF></metadata><defs
     id="defs6" /><sodipodi:namedview
     pagecolor="#ffffff"
     bordercolor="#666666"
     borderopacity="1"
     objecttolerance="10"
     gridtolerance="10"
     guidetolerance="10"
     inkscape:pageopacity="0"
     inkscape:pageshadow="2"
     inkscape:window-width="1280"
     inkscape:window-height="751"
     id="namedview4"
     showgrid="false"
     inkscape:zoom="1.8285714"
     inkscape:cx="216.25"
     inkscape:cy="148.75"
     inkscape:window-x="0"
     inkscape:window-y="0"
     inkscape:window-maximized="1"
     inkscape:current-layer="g12" /><g
     id="g10"
     inkscape:groupmode="layer"
     inkscape:label="ink_ext_XXXXXX"
     transform="matrix(1.25,0,0,-1.25,0,297.5)"><g
       id="g12"
       transform="scale(0.1,0.1)"><path
         d="m 449.531,255.227 2929.489,0"
         style="fill:none;stroke:#000000;stroke-opacity:1;stroke-width:1.25;stroke-linecap:butt;stroke-linejoin:miter;stroke-miterlimit:3.8;stroke-dasharray:5,10;stroke-dashoffset:0"
         id="path14" /><path
         d="m 449.531,255.227 31.489,0 m 2898,0 -31.48,0"
         style="fill:none;stroke:#000000;stroke-opacity:1;stroke-width:5;stroke-linecap:butt;stroke-linejoin:miter;stroke-miterlimit:3.8;stroke-dasharray:none"
         id="path16" /><g
         id="g18"
         transform="scale(10,10)"><text
           transform="matrix(1,0,0,-1,32.9531,22.2211)"
           id="text20"><tspan
             style="fill:#000000;fill-opacity:1;fill-rule:nonzero;stroke:none;font-family:Times New Roman;font-variant:normal;font-weight:normal;font-size:9.6px;writing-mode:lr;-inkscape-font-specification:Times New Roman"
             x="0"
             y="0"
             id="tspan22">0</tspan></text>
</g><path
         d="m 449.531,515.227 2929.489,0"
         style="fill:none;stroke:#000000;stroke-opacity:1;stroke-width:1.25;stroke-linecap:butt;stroke-linejoin:miter;stroke-miterlimit:3.8;stroke-dasharray:5,10;stroke-dashoffset:0"
         id="path24" /><path
         d="m 449.531,515.227 31.489,0 m 2898,0 -31.48,0"
         style="fill:none;stroke:#000000;stroke-opacity:1;stroke-width:5;stroke-linecap:butt;stroke-linejoin:miter;stroke-miterlimit:3.8;stroke-dasharray:none"
         id="path26" /><g
         id="g28"
         transform="scale(10,10)"><text
           transform="matrix(1,0,0,-1,20.9531,48.2211)"
           id="text30"><tspan
             style="fill:#000000;fill-opacity:1;fill-rule:nonzero;stroke:none;font-family:Times New Roman;font-variant:normal;font-weight:normal;font-size:8.8px;writing-mode:lr;-inkscape-font-specification:Times New Roman"
             x="0 6.000039 12.000159"
             y="0"
             sodipodi:role="line"
             id="tspan32">0.1</tspan></text>
</g><path
         d="m 449.531,775.227 2929.489,0"
         style="fill:none;stroke:#000000;stroke-opacity:1;stroke-width:1.25;stroke-linecap:butt;stroke-linejoin:miter;stroke-miterlimit:3.8;stroke-dasharray:5,10;stroke-dashoffset:0"
         id="path34" /><path
         d="m 449.531,775.227 31.489,0 m 2898,0 -31.48,0"
         style="fill:none;stroke:#000000;stroke-opacity:1;stroke-width:5;stroke-linecap:butt;stroke-linejoin:miter;stroke-miterlimit:3.8;stroke-dasharray:none"
         id="path36" /><g
         id="g38"
         transform="scale(10,10)"><text
           transform="matrix(1,0,0,-1,20.9531,74.2211)"
           id="text40"><tspan
             style="fill:#000000;fill-opacity:1;fill-rule:nonzero;stroke:none;font-family:Times New Roman;font-variant:normal;font-weight:normal;font-size:8.8px;writing-mode:lr;-inkscape-font-specification:Times New Roman"
             x="0 6.000039 12.000159"
             y="0"
             sodipodi:role="line"
             id="tspan42">0.2</tspan></text>
</g><path
         d="m 449.531,1035.23 2929.489,0"
         style="fill:none;stroke:#000000;stroke-opacity:1;stroke-width:1.25;stroke-linecap:butt;stroke-linejoin:miter;stroke-miterlimit:3.8;stroke-dasharray:5,10;stroke-dashoffset:0"
         id="path44" /><path
         d="m 449.531,1035.23 31.489,0 m 2898,0 -31.48,0"
         style="fill:none;stroke:#000000;stroke-opacity:1;stroke-width:5;stroke-linecap:butt;stroke-linejoin:miter;stroke-miterlimit:3.8;stroke-dasharray:none"
         id="path46" /><g
         id="g48"
         transform="scale(10,10)"><text
           transform="matrix(1,0,0,-1,20.9531,100.221)"
           id="text50"><tspan
             style="fill:#000000;fill-opacity:1;fill-rule:nonzero;stroke:none;font-family:Times New Roman;font-variant:normal;font-weight:normal;font-size:8.8px;writing-mode:lr;-inkscape-font-specification:Times New Roman"
             sodipodi:role="line"
             id="tspan52"
             y="0"
             x="0 6.000039 12.000159">0.3</tspan></text>
</g><path
         d="m 449.531,1295.23 2929.489,0"
         style="fill:none;stroke:#000000;stroke-opacity:1;stroke-width:1.25;stroke-linecap:butt;stroke-linejoin:miter;stroke-miterlimit:3.8;stroke-dasharray:5,10;stroke-dashoffset:0"
         id="path54" /><path
         d="m 449.531,1295.23 31.489,0 m 2898,0 -31.48,0"
         style="fill:none;stroke:#000000;stroke-opacity:1;stroke-width:5;stroke-linecap:butt;stroke-linejoin:miter;stroke-miterlimit:3.8;stroke-dasharray:none"
         id="path56" /><g
         id="g58"
         transform="scale(10,10)"><text
           transform="matrix(1,0,0,-1,20.9531,126.221)"
           id="text60"><tspan
             style="fill:#000000;fill-opacity:1;fill-rule:nonzero;stroke:none;font-family:Times New Roman;font-variant:normal;font-weight:normal;font-size:8.8px;writing-mode:lr;-inkscape-font-specification:Times New Roman"
             x="0 6.000039 12.000159"
             y="0"
             sodipodi:role="line"
             id="tspan62">0.4</tspan></text>
</g><path
         d="m 449.531,1554.71 2929.489,0"
         style="fill:none;stroke:#000000;stroke-opacity:1;stroke-width:1.25;stroke-linecap:butt;stroke-linejoin:miter;stroke-miterlimit:3.8;stroke-dasharray:5,10;stroke-dashoffset:0"
         id="path64" /><path
         d="m 449.531,1554.71 31.489,0 m 2898,0 -31.48,0"
         style="fill:none;stroke:#000000;stroke-opacity:1;stroke-width:5;stroke-linecap:butt;stroke-linejoin:miter;stroke-miterlimit:3.8;stroke-dasharray:none"
         id="path66" /><g
         id="g68"
         transform="scale(10,10)"><text
           transform="matrix(1,0,0,-1,20.9531,152.171)"
           id="text70"><tspan
             style="fill:#000000;fill-opacity:1;fill-rule:nonzero;stroke:none;font-family:Times New Roman;font-variant:normal;font-weight:normal;font-size:8.8px;writing-mode:lr;-inkscape-font-specification:Times New Roman"
             x="0 6.000039 12.000159"
             y="0"
             sodipodi:role="line"
             id="tspan72">0.5</tspan></text>
</g><path
         d="m 449.531,1814.71 2929.489,0"
         style="fill:none;stroke:#000000;stroke-opacity:1;stroke-width:1.25;stroke-linecap:butt;stroke-linejoin:miter;stroke-miterlimit:3.8;stroke-dasharray:5,10;stroke-dashoffset:0"
         id="path74" /><path
         d="m 449.531,1814.71 31.489,0 m 2898,0 -31.48,0"
         style="fill:none;stroke:#000000;stroke-opacity:1;stroke-width:5;stroke-linecap:butt;stroke-linejoin:miter;stroke-miterlimit:3.8;stroke-dasharray:none"
         id="path76" /><g
         id="g78"
         transform="scale(10,10)"><text
           transform="matrix(1,0,0,-1,20.9531,178.171)"
           id="text80"><tspan
             style="fill:#000000;fill-opacity:1;fill-rule:nonzero;stroke:none;font-family:Times New Roman;font-variant:normal;font-weight:normal;font-size:8.8px;writing-mode:lr;-inkscape-font-specification:Times New Roman"
             x="0 6.000039 12.000159"
             y="0"
             sodipodi:role="line"
             id="tspan82">0.6</tspan></text>
</g><path
         d="m 449.531,2074.71 2929.489,0"
         style="fill:none;stroke:#000000;stroke-opacity:1;stroke-width:1.25;stroke-linecap:butt;stroke-linejoin:miter;stroke-miterlimit:3.8;stroke-dasharray:5,10;stroke-dashoffset:0"
         id="path84" /><path
         d="m 449.531,2074.71 31.489,0 m 2898,0 -31.48,0"
         style="fill:none;stroke:#000000;stroke-opacity:1;stroke-width:5;stroke-linecap:butt;stroke-linejoin:miter;stroke-miterlimit:3.8;stroke-dasharray:none"
         id="path86" /><g
         id="g88"
         transform="scale(10,10)"><text
           transform="matrix(1,0,0,-1,20.9531,204.171)"
           id="text90"><tspan
             style="fill:#000000;fill-opacity:1;fill-rule:nonzero;stroke:none;font-family:Times New Roman;font-variant:normal;font-weight:normal;font-size:8.8px;writing-mode:lr;-inkscape-font-specification:Times New Roman"
             x="0 6.000039 12.000159"
             y="0"
             sodipodi:role="line"
             id="tspan92">0.7</tspan></text>
</g><path
         d="m 449.531,2334.71 2929.489,0"
         style="fill:none;stroke:#000000;stroke-opacity:1;stroke-width:1.25;stroke-linecap:butt;stroke-linejoin:miter;stroke-miterlimit:3.8;stroke-dasharray:5,10;stroke-dashoffset:0"
         id="path94" /><path
         d="m 449.531,2334.71 31.489,0 m 2898,0 -31.48,0"
         style="fill:none;stroke:#000000;stroke-opacity:1;stroke-width:5;stroke-linecap:butt;stroke-linejoin:miter;stroke-miterlimit:3.8;stroke-dasharray:none"
         id="path96" /><g
         id="g98"
         transform="scale(10,10)"><text
           transform="matrix(1,0,0,-1,20.9531,230.171)"
           id="text100"><tspan
             style="fill:#000000;fill-opacity:1;fill-rule:nonzero;stroke:none;font-family:Times New Roman;font-variant:normal;font-weight:normal;font-size:8.8px;writing-mode:lr;-inkscape-font-specification:Times New Roman"
             x="0 6.000039 12.000159"
             y="0"
             sodipodi:role="line"
             id="tspan102">0.8</tspan></text>
</g><path
         d="m 449.531,255.227 0,31.48 m 0,2048.003 0,-31.51"
         style="fill:none;stroke:#000000;stroke-opacity:1;stroke-width:5;stroke-linecap:butt;stroke-linejoin:miter;stroke-miterlimit:3.8;stroke-dasharray:none"
         id="path104" /><g
         id="g106"
         transform="scale(10,10)"><text
           transform="matrix(1,0,0,-1,44.9531,12.2211)"
           id="text108"><tspan
             style="fill:#000000;fill-opacity:1;fill-rule:nonzero;stroke:none;font-family:Times New Roman;font-variant:normal;font-weight:normal;font-size:8.8px;writing-mode:lr;-inkscape-font-specification:Times New Roman"
             x="0"
             y="0"
             id="tspan110">0</tspan></text>
</g><path
         d="m 1035.55,255.227 0,31.48 m 0,2048.003 0,-31.51"
         style="fill:none;stroke:#000000;stroke-opacity:1;stroke-width:5;stroke-linecap:butt;stroke-linejoin:miter;stroke-miterlimit:3.8;stroke-dasharray:none"
         id="path112" /><g
         id="g114"
         transform="scale(10,10)"><text
           transform="matrix(1,0,0,-1,103.553,12.2211)"
           id="text116"><tspan
             style="fill:#000000;fill-opacity:1;fill-rule:nonzero;stroke:none;font-family:Times New Roman;font-variant:normal;font-weight:normal;font-size:8.8px;writing-mode:lr;-inkscape-font-specification:Times New Roman"
             x="0"
             y="0"
             id="tspan118">2</tspan></text>
</g><path
         d="m 1621.52,255.227 0,31.48 m 0,2048.003 0,-31.51"
         style="fill:none;stroke:#000000;stroke-opacity:1;stroke-width:5;stroke-linecap:butt;stroke-linejoin:miter;stroke-miterlimit:3.8;stroke-dasharray:none"
         id="path120" /><g
         id="g122"
         transform="scale(10,10)"><text
           transform="matrix(1,0,0,-1,162.153,12.2211)"
           id="text124"><tspan
             style="fill:#000000;fill-opacity:1;fill-rule:nonzero;stroke:none;font-family:Times New Roman;font-variant:normal;font-weight:normal;font-size:8.8px;writing-mode:lr;-inkscape-font-specification:Times New Roman"
             x="0"
             y="0"
             id="tspan126">4</tspan></text>
</g><path
         d="m 2207.03,255.227 0,31.48 m 0,2048.003 0,-31.51"
         style="fill:none;stroke:#000000;stroke-opacity:1;stroke-width:5;stroke-linecap:butt;stroke-linejoin:miter;stroke-miterlimit:3.8;stroke-dasharray:none"
         id="path128" /><g
         id="g130"
         transform="scale(10,10)"><text
           transform="matrix(1,0,0,-1,220.703,12.2211)"
           id="text132"><tspan
             style="fill:#000000;fill-opacity:1;fill-rule:nonzero;stroke:none;font-family:Times New Roman;font-variant:normal;font-weight:normal;font-size:8.8px;writing-mode:lr;-inkscape-font-specification:Times New Roman"
             x="0"
             y="0"
             id="tspan134">6</tspan></text>
</g><path
         d="m 2793.05,255.227 0,31.48 m 0,2048.003 0,-31.51"
         style="fill:none;stroke:#000000;stroke-opacity:1;stroke-width:5;stroke-linecap:butt;stroke-linejoin:miter;stroke-miterlimit:3.8;stroke-dasharray:none"
         id="path136" /><g
         id="g138"
         transform="scale(10,10)"><text
           transform="matrix(1,0,0,-1,279.303,12.2211)"
           id="text140"><tspan
             style="fill:#000000;fill-opacity:1;fill-rule:nonzero;stroke:none;font-family:Times New Roman;font-variant:normal;font-weight:normal;font-size:8.8px;writing-mode:lr;-inkscape-font-specification:Times New Roman"
             x="0"
             y="0"
             id="tspan142">8</tspan></text>
</g><path
         d="m 3379.02,255.227 0,31.48 m 0,2048.003 0,-31.51"
         style="fill:none;stroke:#000000;stroke-opacity:1;stroke-width:5;stroke-linecap:butt;stroke-linejoin:miter;stroke-miterlimit:3.8;stroke-dasharray:none"
         id="path144" /><g
         id="g146"
         transform="scale(10,10)"><text
           transform="matrix(1,0,0,-1,334.903,12.2211)"
           id="text148"><tspan
             style="fill:#000000;fill-opacity:1;fill-rule:nonzero;stroke:none;font-family:Times New Roman;font-variant:normal;font-weight:normal;font-size:8.8px;writing-mode:lr;-inkscape-font-specification:Times New Roman"
             x="0 6.000039"
             y="0"
             sodipodi:role="line"
             id="tspan150">10</tspan></text>
</g><path
         d="m 449.531,255.227 2929.49,0 0,2079.49 -2929.49,0 0,-2079.49 z"
         style="fill:none;stroke:#000000;stroke-opacity:1;stroke-width:5;stroke-linecap:butt;stroke-linejoin:miter;stroke-miterlimit:3.8;stroke-dasharray:none"
         id="path152" /><g
         id="g154"
         transform="scale(10,10)"><text
           transform="matrix(0,1,1,0,0,0)"
           id="text156"
           x="132.61487"
           y="12.06563"
           style="text-align:center;text-anchor:middle"><tspan
             style="font-size:9.6px;font-variant:normal;font-weight:normal;text-align:center;writing-mode:lr-tb;text-anchor:middle;fill:#000000;fill-opacity:1;fill-rule:nonzero;stroke:none;font-family:SimHei;-inkscape-font-specification:SimHei"
             sodipodi:role="line"
             id="tspan158"
             x="132.61487"
             y="12.06563">市场价格（美元）</tspan></text>
<text
           transform="scale(1,-1)"
           id="text160"
           style="font-size:7.19999981px"
           x="176.924"
           y="-3.60938"><tspan
             style="font-size:9.6px;font-variant:normal;font-weight:normal;writing-mode:lr-tb;fill:#000000;fill-opacity:1;fill-rule:nonzero;stroke:none;font-family:SimHei;-inkscape-font-specification:SimHei"
             sodipodi:role="line"
             id="tspan162"
             x="176.924"
             y="-3.60938">时间（天）</tspan></text>
<text
           transform="matrix(1,0,0,-1,240.5416,222.82238)"
           id="text164"><tspan
             style="font-size:9.6px;font-variant:normal;font-weight:normal;writing-mode:lr-tb;fill:#000000;fill-opacity:1;fill-rule:nonzero;stroke:none;font-family:Times New Roman;-inkscape-font-specification:Times New Roman"
             sodipodi:role="line"
             id="tspan166"
             x="0"
             y="0">m3.medium</tspan></text>
</g><path
         d="m 2987.54,2253.2 271.48,0 M 449.531,276.207 l 18.989,5 0.5,-5 4.031,5 0.969,-5 20,5 1.531,-5 8.98,5 1.489,-5 5,5 1.011,-5 5.508,5 0.981,-5 5,5 0.5,-5 1.019,5 0.981,-5 4.019,5 1.992,-5 1.989,5 1.019,-5 2.5,5 0.981,-5 4.019,5 0.981,-5 25.5,5 1.019,-5 3.012,5 0.969,-5 3.011,5 0.508,-5 26.992,5 1.489,-5 11.519,5 1.992,-5 11.489,5 2.031,-5 1.48,5 1.02,-5 5.469,5 4.019,-5 22.5,5 3.012,-5 0.469,5 1.011,-5 3.008,5 0.981,-5 2.5,5 1.011,-5 1.02,5 1.988,-5 1.992,5 1.02,-5 3.469,5 1.019,-5 3.012,5 0.969,-5 14.5,5 0.5,-5 13.519,5 0.981,-5 32.031,5 0.969,-5 3.011,5 1.02,-5 11.988,5 0.981,-5 43,5 1.019,-5 5,5 0.981,-5 3.511,5 1.02,-5 3.98,5 1.989,-5 4.5,5 1.011,-5 3.989,5 2.031,-5 1.988,5 0.512,-5 5,5 0.969,-5 4.031,5 2.969,-5 1.011,5 0.508,-0.512 3.012,0 2.969,0.512 3,0.5 2,-0.5 1.011,0.5 0.508,0 1.992,0.508 1.02,-1.52 0.969,1.52 1.019,-0.508 1.481,0.508 1.019,0.512 0.981,0 1.011,10 1.02,2.5"
         style="fill:none;stroke:#ff0000;stroke-opacity:1;stroke-width:2.5;stroke-linecap:butt;stroke-linejoin:miter;stroke-miterlimit:3.8;stroke-dasharray:none"
         id="path168" /><path
         d="m 885.551,295.227 0.969,0.468 1.019,-1.988 0.981,1.52 1.011,2.5 1.02,-1.02 0.469,0.508 1.011,5.512 1.02,2.5 0.969,-8.012 1.019,0.98 0.981,3.512 1.011,-3 0.508,-3.012 0.981,1.012 1.011,-1.48 1.02,11.988 9.488,78.012 0.981,-58.52 1.011,3.988 1.02,12.5 0.969,15 1.019,-12.5 0.981,-30 0.5,47.032 1.019,22.5 5,-34.02 0.981,-5.512 1.011,57.5 1.02,34.02 0.469,-130 6.011,25.98 1.02,-3.48 0.969,3.48 1.019,52.032 3.481,0 1.011,-68.52 1.02,-20.5 0.969,-2 2,0.508 1.011,0.98 1.989,2.032 1.019,1.988 0.981,-4.488 0.5,-0.512 1.019,1.992 0.981,-1.48 1.011,-3.52 1.02,58.52 0.969,35 1.019,-26.02 0.512,26.02 0.969,-36.52 1.019,36.52 0.981,-28.012 1.011,28.012 1.02,-44.532 0.969,-7.5 1.019,5.512 0.512,-1.492 0.969,-11.52 1.019,-18.48 1.992,-1.008 1.02,-8.48 0.969,9.488 1.019,-1.52 0.981,1.52 3.511,3.012 1.02,-1.52 0.969,-1.492 1.019,-6.008 0.981,6.008 1.011,7.5 1.02,6.992 0.469,5.508 1.011,-6.988 1.02,-5 0.969,-8.012 1.019,-14.02 0.981,0 1.011,-0.468 1.02,-1.02 0.469,-1.012 1.011,-2.5 1.02,1.52 0.969,1.492 1.019,1.008 0.981,-0.508 1.011,-0.5 1.989,1.988 1.019,-0.98 0.512,-0.508 0.969,-1.48 1.02,0.468 0.98,4.532 1.01,-2.5 1.02,0.98 0.97,0.5 0.51,-0.5 1.02,-0.98 0.97,-1.02 1.02,0.508 0.98,-1.008 1.01,-0.512"
         style="fill:none;stroke:#ff0000;stroke-opacity:1;stroke-width:2.5;stroke-linecap:butt;stroke-linejoin:miter;stroke-miterlimit:3.8;stroke-dasharray:none"
         id="path170" /><path
         d="m 1009.53,290.695 1.49,0 1.01,0.512 1.02,1.52 0.97,0.468 1.02,0.512 0.98,-2.5 1.01,0.5 1.02,-0.5 0.97,-0.98 1.02,-0.512 0.51,0.512 1.99,0 0.98,0.468 2.03,0.512 0.97,-0.98 1.02,0.98 1.99,1.988 0.51,1.52 0.98,-6.52 2.03,-0.468 0.97,-1.02 2,0 1.01,-0.5 0.51,0 0.98,-0.512 1.01,0.512 3.01,0 0.98,-0.98 6.52,0 0.51,0.468 0.97,0 1.02,-0.468 0.98,-0.512 1.01,0.512 1.02,-1.02 0.97,0.508 1.02,0 0.51,-1.008 0.97,1.008 1.02,-0.508 0.98,1.02 1.01,0.468 1.02,0.512 0.97,2.5 0.51,2.5 1.02,1.988 0.97,4.532 1.02,-0.512 0.98,-0.508 1.01,0.508 1.02,-1.008 0.47,-0.98 2.03,3.48 1.99,-2 0.98,-6.012 1.01,-3.48 1.02,-1.988 0.47,-1.52 1.01,-0.512 1.99,0 1.02,0.512 0.98,0 1.01,0.5 1.02,-0.5 0.97,-0.512 0.51,1.012 1.02,0.508 0.97,-0.508 1.02,0.508 0.98,0.512 1.01,-1.02 1.02,1.02 0.97,0.468 1.02,-0.98 2.5,-1.988 0.98,0.468 1.01,1.012 1.02,-0.5 0.97,0 2,1.008 1.01,-1.008 1.02,0.5 0.97,0.508 0.51,-1.52 1.99,1.52 1.02,0.98 0.98,6.52 1.01,13.992 1.02,-12.5 0.97,-10 1.53,-3.48 0.97,0 1.02,3.48 0.98,0 6.01,-3.992 4.49,0.512 1.02,0"
         style="fill:none;stroke:#ff0000;stroke-opacity:1;stroke-width:2.5;stroke-linecap:butt;stroke-linejoin:miter;stroke-miterlimit:3.8;stroke-dasharray:none"
         id="path172" /><path
         d="m 1130.04,280.227 3.01,0.468 1.99,-0.468 0.98,0.468 1.01,0.512 1.02,-0.98 1.99,0.468 0.98,-0.98 1.01,0.512 1.99,-1.02 3.52,0 5.98,0.508 1.01,0.512 1.02,0.468 0.97,-0.468 1.02,-0.512 0.98,0.512 1.01,-0.512 1.02,0.98 1.99,-0.468 0.98,0 0.5,1.48 1.02,1.02 0.98,0.468 1.01,-0.468 1.02,0.98 0.97,5 1.02,30 0.98,66.52 3,1689.483 5.51,-1751.515 1.02,-43.988 0.97,-1.012 3.01,0 1.02,0.512 0.97,0 1.02,0.5 1.99,-0.5 1.49,1.008 1.01,0 1.02,0.512 0.97,0.468 2,-0.468 1.01,0 3.01,0.468 0.98,-0.468 1.01,0 0.51,0.468 0.98,1.012 1.01,0.508 1.02,0 0.97,0.512 1.02,1.988 0.98,-0.508 1.01,-0.5 1.99,0 1.02,0.5 0.98,0.508 1.01,0.98 1.02,-0.98 0.97,2.5 1.02,10.512 0.98,-2.5 1.01,-3.012 1.02,0.512 0.97,-1.52 0.51,1.52 1.99,-0.512 1.02,-6.008 0.98,6.008 2.03,0 0.97,-1.988 1.02,2.968 0.98,2.032 1.01,-2.032 1.02,1.52 0.97,-1.988 1.02,-1.52 0.98,4.02 1.01,0 1.02,-5.512 0.97,5 1.02,0.98 1.99,-7.968 0.51,-0.512 0.98,1.492 1.01,-2.5 1.02,-0.512 0.97,0.512 1.02,-2 0.98,3.008 1.01,3.012 1.02,-2.5 0.97,-3.012 2,0 1.01,3.48 1.02,3.012 0.97,0.5 1.02,-3 0.98,-2 1.01,0.508 1.02,-0.508 0.97,0.508 0.51,0 1.02,-1.008 3.98,0 1.02,0.5 0.97,-1.992 1.02,0.98 0.98,-0.468 1.01,-0.512 1.99,-0.508 2,0 1.01,-0.5 1.02,-1.492 0.47,-1.008 1.01,-0.512 3.01,0 0.98,1.012 1.01,-0.5 1.99,0.5 2,0 2.03,-0.5 2.5,-0.512 0.97,0.512 1.02,-0.512 0.98,-0.468 2.03,0.468 5,0"
         style="fill:none;stroke:#ff0000;stroke-opacity:1;stroke-width:2.5;stroke-linecap:butt;stroke-linejoin:miter;stroke-miterlimit:3.8;stroke-dasharray:none"
         id="path174" /><path
         d="m 1303.05,280.695 2.5,0 0.97,3.012 1.02,1.988 0.98,0 1.01,0.512 6.49,-0.512 1.01,0.512 1.99,0 2,-2 1.01,0.508 1.99,-0.508 2,0 1.01,-1.012 1.02,0.512 3.47,0 1.02,-2 1.99,0 1.02,2.5 0.97,2 1.02,1.988 0.98,0 1.01,-2.5 1.02,2.5 0.97,-0.468 1.02,0.468 1.48,-0.468 2,-1.02 1.01,-0.5 1.02,-0.98 1.99,0 0.98,-1.52 2.03,1.008 0.97,-0.508 1.02,0 0.98,-0.5 1.01,0.5 3.01,0 0.98,-1.992 2.03,-0.508 0.97,-1.48 2.5,-0.512 1.02,0.512 1.99,-0.512 1.99,0.512 1.02,-0.512 1.99,0.512 6.02,0 0.47,0.468 1.01,0 1.02,1.012 5,0 0.97,-0.5 1.02,0.5 0.98,-3.98 1.01,0 3.01,0.468 0.98,-0.468 4.53,0 1.99,0.468 3.98,0 2,0.512 2.03,1.008 1.99,-0.508 3.48,0.508 1.01,11.992 587.5,0 265,-0.5 1.02,0.5 87.5,-0.5 0.97,0.5 105,-0.5 1.02,-0.512 0.98,1.012 8.51,-0.5 1.99,0 1.02,-0.512 2.5,0 0.98,1.012 2.03,-1.992 0.97,1.992 3.01,-1.012 1.02,0.512 1.48,-0.98 1.02,0.468 0.97,0 2,1.012 2.03,-1.48"
         style="fill:none;stroke:#ff0000;stroke-opacity:1;stroke-width:2.5;stroke-linecap:butt;stroke-linejoin:miter;stroke-miterlimit:3.8;stroke-dasharray:none"
         id="path176" /><path
         d="m 2495.55,290.227 0.97,1.48 1.02,-0.5 0.98,-2.5 1.01,1.008 1.49,0.512 1.01,-1.02 1.02,0 0.97,0.508 1.02,-0.508 0.98,0.508 1.01,1.992 1.02,-1.992 0.97,1.492 1.02,0.5 0.98,-1.992 0.5,0.98 2,-0.98 1.01,0 1.02,0.512 0.97,0.468 1.02,-0.468 0.98,0.468 1.01,1.012 0.51,-1.48 0.98,1.48 2.03,-1.992 0.97,1.492 1.02,0.5 0.98,-1.992 1.01,0.512 1.02,0.468 0.97,0 0.51,-0.468 1.02,0.468 0.97,1.012 1.02,-1.012 0.98,1.012 2.03,-1.992 0.97,0.98 1.02,0 0.51,-0.98 0.97,0 1.02,0.512 0.98,0.468 1.01,-0.98 1.02,0.98 0.97,1.012 0.51,-1.012 1.02,1.012 1.99,-2.5 0.98,1.02 1.01,0.468 1.02,-1.988 0.97,0.5 1.02,0.508 1.48,-1.008 1.02,0.5 0.98,1.488 1.01,-1.488 1.02,1.02 0.97,0.468 1.02,-1.988 0.98,1.52 1.01,0 1.02,-1.52 0.47,0.5 1.01,0 1.02,-0.5 0.97,0.5 1.02,0.508 0.98,-1.52 3,3.012 1.02,-0.512 0.98,0.512 1.01,0.5 1.02,-1.992 1.48,0.512 1.02,-0.512 0.97,0.512 1.02,0.468 0.98,-0.98 1.01,1.992 1.99,-1.48 1.02,1.48 1.99,-1.992 1.02,0.512 0.97,0.468 1.02,-0.98 0.98,0.512 1.01,0.468 0.51,1.012 0.98,-1.48 1.01,1.48 1.99,-1.012 1.02,1.012 1.99,-1.48 1.99,0.468 1.02,-0.468 0.98,0.468 0.5,0.512 1.02,-2 0.98,1.488"
         style="fill:none;stroke:#ff0000;stroke-opacity:1;stroke-width:2.5;stroke-linecap:butt;stroke-linejoin:miter;stroke-miterlimit:3.8;stroke-dasharray:none"
         id="path178" /><path
         d="m 2606.02,290.695 1.01,1.012 1.99,-1.48 1.02,0.98 0.98,0.5 1.01,-1.48 1.02,0 0.47,0.98 1.01,-0.98 1.02,0 0.97,0.98 1.02,-0.512 0.98,1.012 2.03,-2.5 0.97,2.5 2,-1.992 1.01,0.512 1.02,0.468 0.97,1.012 1.02,-1.48 0.98,0.98 1.01,0.5 0.51,-0.5 0.98,0 1.01,0.5 1.02,-0.5 0.97,0.5 2,-1.48 1.01,0.468 1.02,1.012 0.97,-1.48 1.02,0.468 0.98,1.012 1.01,-1.48 1.02,1.48 1.99,-2.5 0.98,2.5 2.5,-0.5 1.01,-4.5 1.02,0.508 0.97,-8.508 2,0 0.5,-2 5,0.508 5.51,0 21.02,0.512 5.47,0 2.03,0.468 0.97,-0.468 1.02,0.468 3.98,-0.468 5.51,0.468 1.99,0 4.5,0.512 1.01,-0.512 3.01,0 3.48,0.512 4.02,-0.512 6.48,0 1.02,0.512 0.98,-0.512 0.5,0.512 2,-0.512 1.01,0.512 1.49,0 1.01,-0.512 14.49,0 3.52,-0.468 0.98,0.468 2.5,0 2.03,0.512 0.97,-0.512 5.51,0 3.52,-0.468 0.97,0.468 2.5,0 1.02,0.512 1.99,-0.512 5,0.512 0.51,-0.512 0.98,0 3,0.512 2,-0.512 4.53,0.512 7.97,0 4.53,-0.512 7.5,-0.468 3.98,0.468 11.49,0"
         style="fill:none;stroke:#ff0000;stroke-opacity:1;stroke-width:2.5;stroke-linecap:butt;stroke-linejoin:miter;stroke-miterlimit:3.8;stroke-dasharray:none"
         id="path180" /><path
         d="m 2828.52,278.195 1.52,0 1.99,0.512 1.99,-0.512 1.02,0.512 2.5,-0.512 1.99,0.512 3.99,-0.512 1.01,0.512 1.02,0 0.97,-0.512 1.53,0 3.98,0.512 3.99,-0.98 1.52,0.468 0.98,-0.468 2.03,0.468 0.97,-0.468 3.01,0.468 5.51,0.512 3.01,0 1.48,0.5 1.02,0.508 1.99,-0.508 0.98,0 1.01,0.508 1.02,-0.508 0.47,0 1.01,0.508 3.01,0 1.99,0.98 1.02,2.032 0.47,0.98 1.01,-0.512 1.02,-0.468 0.97,0.98 1.02,-0.512 0.98,-0.98 1.01,0.98 0.51,0.512 0.98,0.5 2.03,-3.512 0.97,-0.468 1.02,-0.512 0.98,-0.508 1.01,0 2.5,0.508 1.99,0.512 1.02,-0.512 1.48,-0.508 1.02,0.508 1.99,0.512 1.02,3.98 0.97,2 32,1.008 1.01,-1.008 1.99,0.5 1.02,0.508 0.98,-1.008 2.03,1.008 0.97,-1.008 1.53,1.52 0.97,-1.52 1.02,3 1.99,1.488 1.02,8.012 0.97,-2.5 1.02,24.02 0.98,15 1.01,20 1.02,-53.012 0.97,-1.988 1.02,-1.52 0.98,51.008 1.01,-57.5 1.02,23.992 0.97,1.008 1.02,-6.008 0.98,-2 1.01,0.508 1.02,50 0.97,-41.988 1.02,-4.532 0.98,-10.468 1.52,22.968 0.98,-16.488 1.01,-3 1.02,4.488 0.97,-12.968 1.02,18.98 0.51,8.988 0.97,-37.5 1.02,1.52 0.98,4.492 1.01,7 1.02,1.008 0.97,-3.008 1.02,-7.5 0.98,10 1.01,-10.5 1.02,-3.012 0.97,2.032"
         style="fill:none;stroke:#ff0000;stroke-opacity:1;stroke-width:2.5;stroke-linecap:butt;stroke-linejoin:miter;stroke-miterlimit:3.8;stroke-dasharray:none"
         id="path182" /><path
         d="m 2996.52,290.227 1.02,1.48 0.51,2 0.97,-1.492 1.02,0.98 0.98,-0.468 1.01,-2.032 1.02,0.512 1.48,0.5 1.02,-0.5 0.97,0 1.02,1.52 0.98,1.988 1.01,0 1.02,1.492 0.47,-3.012 1.01,1.012 1.02,1.488 0.97,-0.98 1.02,-5 0.98,-3.508 1.01,3.508 1.99,0 1.53,-1.008 0.97,-2 1.02,1.488 0.98,-0.468 1.01,0.98 1.02,-0.512 0.97,-0.98 1.53,-1.008 1.99,0.5 0.98,0.508 2.03,-1.008 70.47,5.5 87.03,15.508 0.97,-11.988 1.02,-3.52 0.98,10.508 1.01,-3.008 1.99,5 1.02,32 0.98,47.5 1.01,1.52 1.49,-74.02 1.01,17.5 1.02,24.488 0.97,32.032 1.02,-90 1.48,90 1.02,43.98 0.98,1645.503 8,-1779.995 1.02,-3.008 14.49,2 1.02,6.988 0.97,-1.488 1.02,3.52 0.98,-0.512 1.01,-1.52 1.02,-2.5 0.97,-6.488 2,7.5 0.5,11.02 2,2.5 1.01,7.5 1.02,-24.532 0.97,9.532 1.02,-0.512 0.98,16.492 1.01,64.02 1.02,-45.512 1.99,-48.008 1.99,13.008 1.02,-11.008 0.97,24.02 1.02,8.98 1.99,-5.5 1.02,3 0.97,-32.5 67,-1.48 1.01,0.98 1.99,-0.512 1.02,0.512 0.98,0.5 2.03,-1.012 0.97,-0.468 0.51,0.98 3.01,0 0.98,-0.98 1.01,0.468 1.02,0.512 0.97,-0.512 1.02,1.012 1.99,-1.012 1.02,1.012 1.99,-2.5 0.98,1.02 0.5,0.468 1.53,-1.988 0.97,1.988 1.02,0 0.98,0.512 1.01,0.5 1.99,-1.012 2,-0.468 1.01,-0.512 1.02,0.512 0.97,0.468 0.51,0.512 1.02,-1.492 1.99,-0.508 0.98,-0.5 2.03,1.008 0.97,-1.008 1.02,1.008 0.98,0.512 1.01,-1.52 1.02,0.5 1.48,1.488 1.49,1.012 0.5,-0.5"
         style="fill:none;stroke:#ff0000;stroke-opacity:1;stroke-width:2.5;stroke-linecap:butt;stroke-linejoin:miter;stroke-miterlimit:3.8;stroke-dasharray:none"
         id="path184" /><path
         d="m 449.531,255.227 2929.49,0 0,2079.49 -2929.49,0 0,-2079.49 z"
         style="fill:none;stroke:#000000;stroke-opacity:1;stroke-width:5;stroke-linecap:butt;stroke-linejoin:miter;stroke-miterlimit:3.8;stroke-dasharray:none"
         id="path186" /></g></g></svg>